<?xml version="1.0" encoding="UTF-8"?>
<!DOCTYPE svg PUBLIC "-//W3C//DTD SVG 1.1//EN" "http://www.w3.org/Graphics/SVG/1.1/DTD/svg11.dtd">
<!-- Creator: CorelDRAW -->
<svg xmlns="http://www.w3.org/2000/svg" xml:space="preserve" width="23.8173in" height="6.9581in" style="shape-rendering:geometricPrecision; text-rendering:geometricPrecision; image-rendering:optimizeQuality; fill-rule:evenodd; clip-rule:evenodd"
viewBox="0 0 23.6522 6.90987"
 xmlns:xlink="http://www.w3.org/1999/xlink">
 <defs>
  <style type="text/css">
   <![CDATA[
    .str0 {stroke:#1F1A17;stroke-width:0.00689674}
    .fil0 {fill:#1F1A17}
    .fil11 {fill:#901E78}
    .fil10 {fill:#009A46}
    .fil7 {fill:#106F88}
    .fil8 {fill:#2E838E}
    .fil4 {fill:#593B65}
    .fil6 {fill:#AE2C2A}
    .fil3 {fill:#C4337B}
    .fil9 {fill:#D36622}
    .fil5 {fill:#F0BC0D}
    .fil1 {fill:#DA251D;fill-rule:nonzero}
    .fil2 {fill:white;fill-rule:nonzero}
    .fil12 {fill:#1F1A17;fill-opacity:0.250980}
    .fil13 {fill:#1F1A17;fill-opacity:0.290196}
    .fil14 {fill:#1F1A17;fill-opacity:0.388235}
   ]]>
  </style>
 </defs>
 <g id="Layer_x0020_1">
  <metadata id="CorelCorpID_0Corel-Layer"/>
  <rect class="fil0 str0" x="0.00344728" y="0.00344673" width="23.6453" height="6.90298"/>
  <g id="_47433992">
   <path id="_64233456" class="fil1" d="M19.7047 5.31204l-0.664977 0 0.00583721 -1.32642 0.336627 0 -0.00583721 1.16884 0.32835 0 0 0.157581zm0.381862 -1.08539l-0.304532 0 -0.00394882 -0.240283 0.304532 0 0.00394882 0.240283zm-0.000261951 1.08539l-0.304532 0 0 -0.9943 0.304532 0 0 0.9943zm0.810129 0l-0.304532 0 0 -0.79813c0,-0.0304059 -0.0175077,-0.0456069 -0.0525193,-0.0456069 -0.034644,0 -0.0521517,0.0146223 -0.0521517,0.0438514l0 0.799885 -0.304532 0 0 -0.9943 0.304532 0 0 0.0333264c0.0404812,-0.026895 0.103213,-0.0403444 0.187823,-0.0403444 0.0550723,0 0.105406,0.0119872 0.151721,0.0359616 0.0463145,0.0239705 0.0696595,0.0590602 0.0696595,0.105539l0 0.859818zm0.811224 0l-0.303437 0 0 -0.0333304c-0.0393904,0.0312817 -0.101754,0.0470691 -0.18819,0.0470691 -0.0598109,0 -0.111517,-0.0129607 -0.155364,-0.0382996 -0.0436755,-0.0252333 -0.0656481,-0.0584698 -0.0656481,-0.09969l0 -0.870049 0.303437 0 0 0.808362c0,0.0303981 0.0178713,0.0456069 0.0532465,0.0456069 0.0350115,0 0.0525193,-0.0146184 0.0525193,-0.0438553l0 -0.810113 0.303437 0 0 0.9943zm0.915895 0l-0.335532 0 -0.104671 -0.269845 -0.0981066 0.269845 -0.304532 0 0.238157 -0.525947 -0.231956 -0.468353 0.321672 0 0.10358 0.257564 0.0824208 -0.257564 0.289581 0 -0.20424 0.48034 0.243626 0.51396z"/>
   <path id="_64228992" class="fil2" d="M20.2705 4.03522l0.0925079 -0.150896 0.0665981 0 -0.0981769 0.148788 0.0981769 0.150896 -0.0665981 0 -0.0925079 -0.148788zm-0.000860138 0.148788l-0.0599243 0 0 -0.299684 0.0599243 0 0 0.299684zm0.398084 -0.138322c-0.00459392,-0.0151032 -0.012343,-0.0265509 -0.0232511,-0.0344915 -0.0108377,-0.00786635 -0.0245452,-0.0117995 -0.041052,-0.0117995 -0.0143526,0 -0.0271256,0.00428505 -0.0384638,0.0127848 -0.0114125,0.00849973 -0.0190208,0.0196659 -0.0229657,0.0335063l0.125733 0zm-0.127601 0.0417988c0.00179456,0.0162957 0.00847236,0.0292251 0.0198809,0.0385655 0.0114125,0.0094146 0.0261951,0.0141219 0.0442815,0.0141219 0.0119833,0 0.022821,-0.00245921 0.032435,-0.00737764 0.00961791,-0.0049888 0.0172262,-0.0118738 0.022821,-0.0207919l0.0580593 0c-0.00983294,0.0246547 -0.0244709,0.0438358 -0.0440625,0.0575315 -0.0195212,0.0136293 -0.0421272,0.0204439 -0.067818,0.0204439 -0.0172262,0 -0.033084,-0.00295184 -0.0475813,-0.00892198 -0.0144972,-0.00597014 -0.0274853,-0.0148217 -0.0390425,-0.0264844 -0.0109081,-0.0110997 -0.0193766,-0.0239548 -0.0254054,-0.0385655 -0.00602879,-0.0146106 -0.00904318,-0.0295731 -0.00904318,-0.0449579 0,-0.015807 0.00279936,-0.0306287 0.0083277,-0.0445395 0.00552443,-0.0139812 0.0137075,-0.0264844 0.0244709,-0.0375841 0.0117683,-0.0122218 0.025116,-0.0216364 0.039973,-0.0281695 0.0148569,-0.00660351 0.0301439,-0.00990332 0.0460018,-0.00990332 0.0200217,0 0.0387531,0.0044258 0.0561201,0.0133478 0.017367,0.00892198 0.0321535,0.0214956 0.0443518,0.0376545 0.00746365,0.00976257 0.0129177,0.0206511 0.0165068,0.0327322 0.00358912,0.0120849 0.00538368,0.0259214 0.00538368,0.0415877 0,0.00119637 -7.42847e-005,0.00309259 -0.000215035,0.00562218 -0.00014466,0.00259605 -0.000218944,0.0044258 -0.000218944,0.00568864l-0.185227 0zm0.277449 0.0965231l0 -0.299684 0.052531 0 0 0.299684 -0.052531 0zm0.200009 -0.114649c0,0.0210069 0.00588413,0.0376545 0.0176563,0.0499467 0.0117683,0.0122961 0.0277707,0.018407 0.0479371,0.018407 0.0199513,0 0.035813,-0.00625164 0.0476517,-0.0188292 0.0118425,-0.0125737 0.0178009,-0.0295027 0.0178009,-0.0507169 0,-0.0191068 -0.00617345,-0.034773 -0.0185868,-0.0470652 -0.0124173,-0.0122961 -0.028064,-0.018407 -0.0468658,-0.018407 -0.0193023,0 -0.0350936,0.00618127 -0.047292,0.0186142 -0.0122022,0.0124368 -0.0183014,0.028451 -0.0183014,0.0480504zm-0.055475 0.00042225c0,-0.0158735 0.00301439,-0.031051 0.0089728,-0.0453801 0.0059545,-0.0143291 0.0145676,-0.0270435 0.0259058,-0.0381432 0.0116275,-0.0113812 0.0247602,-0.0201624 0.0393279,-0.0262733 0.0145676,-0.0061148 0.02971,-0.0091331 0.045427,-0.0091331 0.0166515,0 0.0320792,0.00274071 0.0461464,0.00814785 0.0140633,0.00541105 0.0270553,0.0135589 0.0388235,0.0243771 0.0120576,0.0113812 0.0213862,0.0245178 0.0279193,0.03941 0.00659961,0.0148921 0.00990332,0.0301361 0.00990332,0.0458024 0,0.017281 -0.00287364,0.0330137 -0.00861311,0.0472763 -0.00573947,0.0143291 -0.0143526,0.0271843 -0.0258354,0.0387062 -0.0115532,0.0116627 -0.0246156,0.0205143 -0.0393279,0.0264844 -0.0147123,0.00597014 -0.0307148,0.00892198 -0.0479371,0.00892198 -0.0174413,0 -0.0332287,-0.00302221 -0.0475109,-0.00906273 -0.0143526,-0.00604052 -0.0273446,-0.0151032 -0.0391128,-0.0271882 -0.0112678,-0.0117995 -0.0197363,-0.0247954 -0.0254757,-0.0389877 -0.00573947,-0.0141884 -0.00861311,-0.0291509 -0.00861311,-0.0449579zm0.387176 -0.112185l0 0.0257103c0.00782335,-0.0102552 0.0168665,-0.017844 0.0269849,-0.0228328 0.0101887,-0.00491452 0.0217459,-0.00737373 0.0348043,-0.00737373 0.0186611,0 0.0345932,0.00322943 0.0477963,0.00969219 0.0132774,0.0063963 0.0246899,0.0165107 0.0341631,0.0302065 0.00911355,-0.0134142 0.0193766,-0.0234622 0.0307148,-0.0299954 0.0113382,-0.00660351 0.0238962,-0.00990332 0.0376037,-0.00990332 0.0283494,0 0.0500952,0.00871085 0.0652337,0.0261326 0.0151463,0.0174217 0.0226803,0.0423579 0.0226803,0.0748828l0 0.129893 -0.0529611 0 0 -0.100245c0,-0.0306991 -0.00344837,-0.0516357 -0.0104077,-0.0626611 -0.00696321,-0.0110293 -0.0189465,-0.0165811 -0.0360984,-0.0165811 -0.017797,0 -0.0304997,0.00618127 -0.038108,0.0186181 -0.00767869,0.0124329 -0.0114828,0.0337174 -0.0114828,0.0639239l0 0.0969454 -0.0533911 0 0 -0.100245c0,-0.0306287 -0.00351875,-0.0514206 -0.0106227,-0.0625946 -0.00710396,-0.0110958 -0.0194469,-0.0166476 -0.0371032,-0.0166476 -0.0179417,0 -0.0308594,0.00618127 -0.0386828,0.0186181 -0.00781944,0.0124329 -0.0117683,0.0337174 -0.0117683,0.0639239l0 0.0969454 -0.0519563 0 0 -0.226412 0.0526014 0zm0.456217 0.112185c0,0.0193179 0.00638457,0.0354768 0.0191576,0.0484727 0.012777,0.0129959 0.028494,0.0194587 0.0472959,0.0194587 0.0185125,0 0.0343039,-0.00660351 0.0474366,-0.0197402 0.0131327,-0.013207 0.019662,-0.029014 0.019662,-0.0473467 0,-0.0191068 -0.00659961,-0.0349842 -0.0197324,-0.0475578 -0.013207,-0.0126479 -0.0298546,-0.01897 -0.0498802,-0.01897 -0.0176524,0 -0.0327243,0.00632202 -0.045212,0.0190403 -0.0124876,0.0127144 -0.0187276,0.0282399 -0.0187276,0.0466429zm-0.00208388 0.0961009l0 0.0913936 -0.0529611 0 0 -0.29968 0.0529611 0 0 0.0188957c0.0107674,-0.00835898 0.0221055,-0.0145402 0.0338738,-0.0186142 0.0117683,-0.00400746 0.0244006,-0.00604443 0.0380377,-0.00604443 0.0145676,0 0.0282751,0.00224809 0.0411928,0.00667389 0.0129177,0.00449618 0.0244709,0.0110997 0.0347339,0.0198809 0.0138482,0.0118034 0.0245413,0.0257103 0.032005,0.0417988 0.00753794,0.0160181 0.0112678,0.0330879 0.0112678,0.0512095 0,0.016933 -0.00337409,0.0330176 -0.0101887,0.0484023 -0.00681855,0.0153847 -0.0164365,0.0285918 -0.0289241,0.0396915 -0.0106188,0.00990332 -0.022821,0.0174217 -0.0364542,0.0226881 -0.0137075,0.00519993 -0.0280601,0.00779989 -0.0432063,0.00779989 -0.0147084,0 -0.0279154,-0.00196659 -0.0396133,-0.00582939 -0.0117683,-0.00393709 -0.022606,-0.010048 -0.0327243,-0.0182662zm0.327681 -0.0965231c0,0.0210069 0.00588804,0.0376545 0.0176563,0.0499467 0.0117683,0.0122961 0.0277707,0.018407 0.0479371,0.018407 0.0199513,0 0.035813,-0.00625164 0.0476556,-0.0188292 0.0118386,-0.0125737 0.017797,-0.0295027 0.017797,-0.0507169 0,-0.0191068 -0.00617345,-0.034773 -0.0185868,-0.0470652 -0.0124173,-0.0122961 -0.0280601,-0.018407 -0.0468658,-0.018407 -0.0193023,0 -0.0350936,0.00618127 -0.047292,0.0186142 -0.0121983,0.0124368 -0.0183014,0.028451 -0.0183014,0.0480504zm-0.0554711 0.00042225c0,-0.0158735 0.00301048,-0.031051 0.00896889,-0.0453801 0.00595841,-0.0143291 0.0145676,-0.0270435 0.0259058,-0.0381432 0.0116275,-0.0113812 0.0247602,-0.0201624 0.0393279,-0.0262733 0.0145676,-0.0061148 0.02971,-0.0091331 0.045427,-0.0091331 0.0166515,0 0.0320792,0.00274071 0.0461464,0.00814785 0.0140672,0.00541105 0.0270553,0.0135589 0.0388274,0.0243771 0.0120537,0.0113812 0.0213862,0.0245178 0.0279154,0.03941 0.00660351,0.0148921 0.00990332,0.0301361 0.00990332,0.0458024 0,0.017281 -0.00286973,0.0330137 -0.00861311,0.0472763 -0.00573947,0.0143291 -0.0143526,0.0271843 -0.0258354,0.0387062 -0.0115532,0.0116627 -0.0246156,0.0205143 -0.0393279,0.0264844 -0.0147123,0.00597014 -0.0307148,0.00892198 -0.0479371,0.00892198 -0.0174413,0 -0.0332287,-0.00302221 -0.0475109,-0.00906273 -0.0143526,-0.00604052 -0.0273407,-0.0151032 -0.0391128,-0.0271882 -0.0112639,-0.0117995 -0.0197324,-0.0247954 -0.0254757,-0.0389877 -0.00573947,-0.0141884 -0.0086092,-0.0291509 -0.0086092,-0.0449579zm0.386096 0.114226l-0.0519563 0 0 -0.299684 0.0519563 0 0 0.178225 0.0750666 -0.104952 0.060714 0 -0.0800906 0.107412 0.095878 0.119 -0.0674583 0 -0.0841098 -0.115067 0 0.115067z"/>
   <path id="_64213048" class="fil2" d="M19.2514 5.61906l-0.0374668 -0.0999793 -0.038284 0.0999793 0.0757508 0zm-0.0970861 0.057555l-0.0246039 0.0650538 -0.0642992 0 0.123097 -0.310412 0.053524 0 0.121315 0.310412 -0.0664574 0 -0.0249753 -0.0650538 -0.1176 0zm0.385928 -0.121952c-0.0216325,0.00167336 -0.0367201,0.00727599 -0.0452706,0.0166632 -0.00854665,0.00938723 -0.0128591,0.0262694 -0.0128591,0.0507169l0 0.119626 -0.0557526 0 0 -0.234521 0.0522573 0 0 0.0270709c0.00840199,-0.0105523 0.0176172,-0.0182662 0.0276534,-0.0231416 0.0100362,-0.00487542 0.0213353,-0.00735027 0.0339715,-0.00735027l0 0.0509358zm0.251156 0.0437302c-0.00475813,-0.0156428 -0.0127848,-0.0275049 -0.0240839,-0.035727 -0.0112248,-0.00814785 -0.025421,-0.0122218 -0.0425221,-0.0122218 -0.0148648,0 -0.0280991,0.00443753 -0.0398439,0.0132422 -0.0118152,0.00880469 -0.0196972,0.0203735 -0.0237867,0.0347066l0.130237 0zm-0.132168 0.0432962c0.00186103,0.0168822 0.00877341,0.030269 0.0205925,0.0399495 0.0118191,0.00974693 0.0271295,0.0146223 0.0458649,0.0146223 0.0124134,0 0.0236382,-0.00254523 0.0335962,-0.00763959 0.00996196,-0.00516474 0.017844,-0.0122961 0.0236421,-0.0215386l0.0601354 0c-0.0101809,0.0255422 -0.0253467,0.0454075 -0.0456421,0.0595958 -0.0202172,0.0141141 -0.0436325,0.021175 -0.0702459,0.021175 -0.01784,0 -0.0342687,-0.0030574 -0.0492859,-0.00924258 -0.0150133,-0.00618518 -0.0284706,-0.0153535 -0.0404382,-0.0274306 -0.0112991,-0.0114985 -0.0200686,-0.024815 -0.0263124,-0.0399495 -0.00624382,-0.0151345 -0.00936769,-0.0306326 -0.00936769,-0.0465687 0,-0.0163739 0.0028971,-0.0317235 0.00862484,-0.0461308 0.00571992,-0.0144816 0.0141962,-0.0274345 0.0253467,-0.0389291 0.0121905,-0.0126636 0.0260192,-0.0224144 0.0414039,-0.0291821 0.0153887,-0.0068381 0.031223,-0.0102591 0.0476477,-0.0102591 0.0207411,0 0.0401411,0.0045861 0.0581336,0.0138287 0.0179886,0.00923867 0.033303,0.0222658 0.0459392,0.0389994 0.00772951,0.0101144 0.0133791,0.021394 0.0170972,0.033909 0.00371423,0.012515 0.00557526,0.026848 0.00557526,0.0430773 0,0.00123547 -7.42847e-005,0.00319815 -0.000222854,0.00582157 -0.000152479,0.00268989 -0.000222854,0.00458219 -0.000222854,0.00589195l-0.191862 0zm0.333741 0.0999793l-0.0538173 0 0 -0.310412 0.0538173 0 0 0.184601 0.0777565 -0.10871 0.0628878 0 -0.0829564 0.111255 0.0993108 0.123266 -0.0698745 0 -0.0871242 -0.119188 0 0.119188zm0.332631 -0.0963433l0.0566401 -0.000215035 0 0.00451182c0,0.0130233 0.00349529,0.0235013 0.010482,0.0313599 0.00691629,0.00793282 0.0162058,0.0118621 0.027802,0.0118621 0.0124876,0 0.0223753,-0.00363995 0.0296591,-0.0109863 0.00721343,-0.0072799 0.0108534,-0.0172458 0.0108534,-0.0297647 0,-0.020006 -0.0146419,-0.034343 -0.0440078,-0.043003 -0.00371423,-0.0011651 -0.00676381,-0.00210734 -0.00891807,-0.00276417 -0.0246781,-0.00756531 -0.0429678,-0.0182623 -0.0548612,-0.0320871 -0.0118934,-0.0138991 -0.01784,-0.0314341 -0.01784,-0.0526092 0,-0.0291079 0.00825342,-0.0524645 0.0246821,-0.0701443 0.016499,-0.0176094 0.0384286,-0.0264141 0.0658592,-0.0264141 0.025722,0 0.046162,0.00785853 0.0614021,0.0235756 0.0152362,0.0156428 0.0237867,0.0376193 0.0254953,0.0659218l-0.0561983 0 0 -0.00254523c0,-0.00996978 -0.00304567,-0.017973 -0.00914092,-0.0240839 -0.00609525,-0.0061148 -0.0140515,-0.00916829 -0.0239353,-0.00916829 -0.0101848,0 -0.0181411,0.00312778 -0.0240135,0.00938723 -0.0058724,0.00625555 -0.00884378,0.0147709 -0.00884378,0.0255383 0,0.0045861 0.000594277,0.00858574 0.00185712,0.012081 0.00118855,0.00349138 0.00312387,0.00661915 0.00572383,0.00945761 0.00602097,0.00640412 0.0187315,0.0122961 0.0383583,0.017754 0.00869912,0.00225591 0.0153887,0.00414821 0.0200686,0.00574729 0.021781,0.00720561 0.0378383,0.0176094 0.0482459,0.0311448 0.0103334,0.0134612 0.0155372,0.0307773 0.0155372,0.0518077 0,0.0319424 -0.00907055,0.0576293 -0.0272077,0.0770566 -0.0181372,0.0194274 -0.0422953,0.0291079 -0.0723298,0.0291079 -0.028322,0 -0.051143,-0.00938723 -0.0686117,-0.0281617 -0.0173943,-0.0187002 -0.0263124,-0.0435113 -0.0267581,-0.0743668zm0.440187 0.0963433l0 -0.0253975c-0.00810094,0.010697 -0.0174686,0.0186298 -0.0279467,0.0237945 -0.0105562,0.00516865 -0.0226021,0.00778816 -0.0360554,0.00778816 -0.0300305,0 -0.0531487,-0.00902363 -0.0692802,-0.0270709 -0.0161315,-0.0180434 -0.0241582,-0.0440195 -0.0241582,-0.0778581l0 -0.135777 0.0564212 0 0 0.105289c0,0.0317274 0.00371423,0.0534107 0.0110762,0.0650538 0.00743238,0.0116392 0.0202172,0.0174608 0.0383543,0.0174608 0.0185868,0 0.0318916,-0.00654878 0.0399182,-0.0196463 0.00810485,-0.0130233 0.0121201,-0.0352148 0.0121201,-0.0665043l0 -0.101653 0.0548573 0 0 0.234521 -0.0553069 0zm0.269219 -0.187006c-0.0216286,0.00167336 -0.0367201,0.00727599 -0.0452667,0.0166632 -0.00855055,0.00938723 -0.012863,0.0262694 -0.012863,0.0507169l0 0.119626 -0.0557487 0 0 -0.234521 0.0522573 0 0 0.0270709c0.00839808,-0.0105523 0.0176172,-0.0182662 0.0276534,-0.0231416 0.0100323,-0.00487542 0.0213314,-0.00735027 0.0339676,-0.00735027l0 0.0509358zm0.118543 0.068252c0,0.0217576 0.00609525,0.0390034 0.0182858,0.0517373 0.0121944,0.012734 0.0287677,0.0190638 0.0496573,0.0190638 0.0206668,0 0.0370954,-0.00647449 0.0493602,-0.0195017 0.0122648,-0.0130233 0.0184343,-0.0305584 0.0184343,-0.0525349 0,-0.019791 -0.00639239,-0.0360202 -0.0192515,-0.0487542 -0.0128591,-0.012734 -0.0290648,-0.0190638 -0.0485431,-0.0190638 -0.0199943,0 -0.0363487,0.00640412 -0.0489849,0.0192827 -0.0126362,0.0128825 -0.0189582,0.0294715 -0.0189582,0.0497707zm-0.0574611 0.000437889c0,-0.0164443 0.00312387,-0.0321613 0.0092934,-0.0470065 0.00616954,-0.0148413 0.0150876,-0.0280131 0.0268363,-0.0395077 0.0120419,-0.0117917 0.0256438,-0.0208857 0.0407354,-0.0272156 0.0150876,-0.00632983 0.0307734,-0.00946152 0.0470535,-0.00946152 0.0172458,0 0.0332287,0.00283846 0.0477963,0.00844108 0.0145715,0.00560263 0.0280249,0.0140437 0.0402154,0.025249 0.0124876,0.0117878 0.0221525,0.0253975 0.0289202,0.0408214 0.0068381,0.0154278 0.0102552,0.0312152 0.0102552,0.0474444 0,0.0178987 -0.00297139,0.0341983 -0.00891807,0.0489692 -0.00594668,0.0148452 -0.0148687,0.0281578 -0.026762,0.0400942 -0.0119676,0.0120771 -0.0254992,0.0212454 -0.0407354,0.0274306 -0.0152401,0.00618518 -0.0318173,0.00924258 -0.0496573,0.00924258 -0.0180629,0 -0.0344173,-0.00313168 -0.0492077,-0.00938723 -0.0148687,-0.00625946 -0.028322,-0.0156467 -0.0405164,-0.0281617 -0.0116666,-0.0122218 -0.02044,-0.0256869 -0.0263867,-0.0403835 -0.00594668,-0.0146966 -0.00892198,-0.0301948 -0.00892198,-0.0465687zm0.392395 0.00211125c0,0.0190638 0.00646667,0.0352187 0.0194,0.0483867 0.0129373,0.0132422 0.0285449,0.0198653 0.0468345,0.0198653 0.0207371,0 0.0379829,-0.00654878 0.0516591,-0.0197206 0.0136058,-0.0131679 0.0204439,-0.0296122 0.0204439,-0.0494071 0,-0.0188448 -0.00676381,-0.0351445 -0.0203657,-0.0488246 -0.0136058,-0.0136058 -0.0299602,-0.0204439 -0.0491373,-0.0204439 -0.0194743,0 -0.0357544,0.00669344 -0.0489888,0.0201546 -0.0132305,0.0134612 -0.0198457,0.0301244 -0.0198457,0.0499897zm-0.00215426 -0.0995414c0.0103295,-0.0083668 0.02148,-0.014552 0.0335219,-0.0184109 0.0120458,-0.00392927 0.0258706,-0.00589195 0.0414078,-0.00589195 0.015979,0 0.0309963,0.00261951 0.0450478,0.00785853 0.0141219,0.0053094 0.0266095,0.0129529 0.0374629,0.0230673 0.0129333,0.0116392 0.0228953,0.0253936 0.0299563,0.0412554 0.00706486,0.0158617 0.0105562,0.032525 0.0105562,0.0499897 0,0.0187706 -0.0038628,0.0364542 -0.0116705,0.0531878 -0.00772951,0.0166632 -0.0188057,0.0311448 -0.0331544,0.0433705 -0.0106305,0.00894935 -0.0225982,0.0157874 -0.0359772,0.0204439 -0.0133791,0.00473076 -0.0275792,0.00706095 -0.0426668,0.00706095 -0.0142001,0 -0.0274306,-0.00211125 -0.0396211,-0.00625946 -0.0121905,-0.00421859 -0.0238649,-0.0105484 -0.034863,-0.0191381l0 0.0192124 -0.0548612 0 0 -0.310412 0.0548612 0 0 0.094666zm0.332404 0.0969923c0,0.0217576 0.00609525,0.0390034 0.0182858,0.0517373 0.0121905,0.012734 0.0287677,0.0190638 0.0496573,0.0190638 0.0206629,0 0.0370915,-0.00647449 0.0493563,-0.0195017 0.0122687,-0.0130233 0.0184382,-0.0305584 0.0184382,-0.0525349 0,-0.019791 -0.0063963,-0.0360202 -0.0192554,-0.0487542 -0.0128591,-0.012734 -0.0290648,-0.0190638 -0.0485392,-0.0190638 -0.0199982,0 -0.0363526,0.00640412 -0.0489888,0.0192827 -0.0126362,0.0128825 -0.0189543,0.0294715 -0.0189543,0.0497707zm-0.0574611 0.000437889c0,-0.0164443 0.00311996,-0.0321613 0.00928949,-0.0470065 0.00616954,-0.0148413 0.0150915,-0.0280131 0.0268363,-0.0395077 0.0120419,-0.0117917 0.0256478,-0.0208857 0.0407354,-0.0272156 0.0150915,-0.00632983 0.0307773,-0.00946152 0.0470574,-0.00946152 0.0172419,0 0.0332248,0.00283846 0.0477963,0.00844108 0.0145676,0.00560263 0.0280249,0.0140437 0.0402154,0.025249 0.0124876,0.0117878 0.0221525,0.0253975 0.0289163,0.0408214 0.0068381,0.0154278 0.0102591,0.0312152 0.0102591,0.0474444 0,0.0178987 -0.0029753,0.0341983 -0.00892198,0.0489692 -0.00594668,0.0148452 -0.0148648,0.0281578 -0.0267581,0.0400942 -0.0119716,0.0120771 -0.0254992,0.0212454 -0.0407393,0.0274306 -0.0152362,0.00618518 -0.0318134,0.00924258 -0.0496534,0.00924258 -0.0180668,0 -0.0344173,-0.00313168 -0.0492116,-0.00938723 -0.0148687,-0.00625946 -0.028322,-0.0156467 -0.0405125,-0.0281617 -0.0116705,-0.0122218 -0.0204439,-0.0256869 -0.0263906,-0.0403835 -0.00594668,-0.0146966 -0.00891807,-0.0301948 -0.00891807,-0.0465687zm0.309509 -0.116205l0.0590211 0 0.0583526 0.163719 0.0643031 -0.163719 0.0583526 0 -0.12942 0.310412 -0.0574611 0 0.0335258 -0.0825146 -0.0866746 -0.227898zm0.354334 0.115767c0,0.0217576 0.00609525,0.0390034 0.0182858,0.0517373 0.0121905,0.012734 0.0287677,0.0190638 0.0496573,0.0190638 0.0206629,0 0.0370915,-0.00647449 0.0493563,-0.0195017 0.0122687,-0.0130233 0.0184382,-0.0305584 0.0184382,-0.0525349 0,-0.019791 -0.0063963,-0.0360202 -0.0192554,-0.0487542 -0.0128591,-0.012734 -0.0290648,-0.0190638 -0.0485392,-0.0190638 -0.0199982,0 -0.0363526,0.00640412 -0.0489888,0.0192827 -0.0126362,0.0128825 -0.0189543,0.0294715 -0.0189543,0.0497707zm-0.0574611 0.000437889c0,-0.0164443 0.00311996,-0.0321613 0.00928949,-0.0470065 0.00616954,-0.0148413 0.0150915,-0.0280131 0.0268363,-0.0395077 0.0120419,-0.0117917 0.0256478,-0.0208857 0.0407354,-0.0272156 0.0150915,-0.00632983 0.0307773,-0.00946152 0.0470574,-0.00946152 0.0172419,0 0.0332248,0.00283846 0.0477963,0.00844108 0.0145676,0.00560263 0.0280249,0.0140437 0.0402154,0.025249 0.0124876,0.0117878 0.0221525,0.0253975 0.0289163,0.0408214 0.0068381,0.0154278 0.0102591,0.0312152 0.0102591,0.0474444 0,0.0178987 -0.0029753,0.0341983 -0.00892198,0.0489692 -0.00594668,0.0148452 -0.0148648,0.0281578 -0.0267581,0.0400942 -0.0119716,0.0120771 -0.0254992,0.0212454 -0.0407393,0.0274306 -0.0152362,0.00618518 -0.0318134,0.00924258 -0.0496534,0.00924258 -0.0180668,0 -0.0344173,-0.00313168 -0.0492116,-0.00938723 -0.0148687,-0.00625946 -0.028322,-0.0156467 -0.0405125,-0.0281617 -0.0116705,-0.0122218 -0.0204439,-0.0256869 -0.0263906,-0.0403835 -0.00594668,-0.0146966 -0.00891807,-0.0301948 -0.00891807,-0.0465687z"/>
   <polygon id="_64212000" class="fil3" points="2.83794,1.08269 4.656,1.08269 4.656,5.65374 2.83794,5.65374 "/>
   <polygon id="_64210952" class="fil4" points="16.8758,1.15115 18.6938,1.15115 18.6938,5.72219 16.8758,5.72219 "/>
   <polygon id="_64209904" class="fil5" points="6.82644,1.0224 8.64451,1.0224 8.64451,5.59345 6.82644,5.59345 "/>
   <polygon id="_64208856" class="fil6" points="8.8359,1.23403 10.654,1.23403 10.654,5.80508 8.8359,5.80508 "/>
   <polygon id="_64207808" class="fil7" points="10.8241,1.24455 12.6422,1.24455 12.6422,5.8156 10.8241,5.8156 "/>
   <polygon id="_64206760" class="fil8" points="12.8706,1.10778 14.6887,1.10778 14.6887,5.67883 12.8706,5.67883 "/>
   <polygon id="_64205712" class="fil9" points="4.83864,1.34806 6.6567,1.34806 6.6567,5.91911 4.83864,5.91911 "/>
   <polygon id="_64204664" class="fil10" points="14.8745,1.31973 16.6926,1.31973 16.6926,5.89077 14.8745,5.89077 "/>
   <polygon id="_64203632" class="fil11" points="0.828172,1.26569 2.64624,1.26569 2.64624,5.83674 0.828172,5.83674 "/>
   <polygon id="_64199296" class="fil12" points="0.913838,2.68651 1.15796,2.68651 1.87532,1.67653 1.87532,2.68651 1.88114,2.68651 1.88454,5.83674 0.917232,5.83674 "/>
   <polygon id="_64199056" class="fil12" points="0.990887,2.83189 1.28751,2.83189 1.28751,3.08437 0.990887,3.08437 "/>
   <polygon id="_64197728" class="fil12" points="1.47451,2.83189 1.77113,2.83189 1.77113,3.08437 1.47451,3.08437 "/>
   <polygon id="_64196840" class="fil12" points="0.984436,5.47032 1.28106,5.47032 1.28106,5.7228 0.984436,5.7228 "/>
   <path id="_64196008" class="fil12" d="M11.2038 4.89358c-0.0931451,-0.14724 0.147916,-0.533247 0.367244,-0.659441 0.166523,-0.0958194 0.387703,-0.154223 0.59217,-0.123778 0.0972347,0.0144816 0.291739,0.0278998 0.478952,0.0246664l0 0.466324c-0.166359,-0.0335571 -0.317317,-0.12212 -0.473666,-0.170444 -0.12325,-0.0380885 -0.252134,-0.0301283 -0.394647,-0.00531722 -0.289718,0.0926721 -0.371259,0.156096 -0.570053,0.467989zm1.66682 -0.773108c0.109077,-0.0137309 0.194524,-0.0380572 0.224215,-0.0777839 0.0926017,-0.123907 0.252138,0.0691356 0.328878,0.05318 0.076736,-0.0159517 0.268578,-0.10636 0.295985,-0.154223 0.0274071,-0.0478628 0.164439,-0.180817 0.137032,-0.228676 -0.0274071,-0.0478667 -0.0563547,0.109578 -0.126069,0.101043 -0.0697103,-0.00853883 -0.145215,-0.134827 -0.164126,-0.248377 -0.0462246,0.0037807 -0.0789568,0.0169252 -0.117925,-0.00717042 -0.0362861,-0.0224379 -0.0616093,-0.133106 -0.0095358,-0.138103 0.0711217,-0.00681464 0.0965231,0.00365168 0.138729,0.0309728 0.0633844,0.0763998 0.0844186,0.172442 0.129314,0.208826 0.00698667,-0.0852358 0.0547517,-0.26755 0.115493,-0.259312 0.0311878,-0.0297373 0.0251082,-0.0367044 0.0670087,-0.0388743 -0.0575354,-0.011217 -0.0785697,-0.0398283 -0.14066,-0.0793986 -0.0596193,-0.010091 -0.156967,-0.00926603 -0.281398,-0.0535514 -0.119411,-0.0428466 -0.238817,-0.0573947 -0.358232,-0.128571 -0.0183913,-0.0148687 -0.0202993,-0.0375059 -0.00249049,-0.0446412 0.192174,0.0683653 0.358193,0.0455795 0.492273,0.0455795 -0.0917142,-0.118253 -0.269333,-0.178889 -0.450967,-0.244373 -0.0336197,-0.0121162 -0.0840159,-0.0296787 -0.102638,-0.0587592 -0.0071626,-0.0850325 0.0385225,-0.108084 0.137028,-0.0691356 0.122441,0.0476204 0.254011,0.0862679 0.350803,0.0904083 0.101266,0.00310823 0.185532,0.0100362 0.245112,0.0308594 0.264954,0.0133517 0.583369,0.483495 0.583443,0.509597 1.95486e-005,0.0121905 -0.0258041,-0.0749571 -0.0183913,-0.0946934 0.00463302,-0.0123391 0.0171949,-0.0630481 0.0303003,-0.064006 0.0218866,-0.0016108 0.0708715,0.0573008 0.0864282,0.0680878 0.00399573,0.0203344 -0.00055909,0.0719232 -0.0135902,0.154653 0.0325992,0.0219648 0.0910417,0.164505 0.0250339,0.19997 0,0 -0.0454114,-0.0113069 -0.050971,-0.0375802 -0.00347574,-0.0163856 -0.00210343,-0.0220234 -0.00142705,-0.0152049 0.0209756,0.209315 -0.0204596,0.429713 -0.107603,0.599106 -0.116936,0.22735 -0.419392,0.396926 -0.501726,0.412862 0,0 -0.105977,0.0197558 -0.15332,-0.00966092 -0.0578247,-0.0359342 -0.110453,-0.0709888 -0.172622,-0.126663l0.0822175 0.0744567 0.07674 0.0638144c0.043867,0.0756531 0.0101301,0.139526 -0.137032,0.186134l-0.142513 0.0478628c0.0240291,0.0353908 0.054001,0.0475617 0.0899978,0.0365168 0.0853843,-0.0598852 0.130467,-0.034906 0.16214,-0.00992678 0.0110606,0.0651828 -0.0480192,0.114676 -0.0876989,0.131249 -0.107115,0.0171324 -0.241292,-0.0359342 -0.350803,-0.147201 -0.0115962,-0.046424 0.00666216,-0.0783117 0.0548143,-0.0957295 0.028756,-0.0280679 0.10231,-0.0212689 0.153476,-0.0319072 -0.149828,-0.0633453 -0.277269,0.00610307 -0.449461,-0.111681 -0.0221095,0.00657615 -0.0438514,0.0116666 -0.065261,0.0154708l0 -0.485446z"/>
   <path id="_64195120" class="fil13" d="M13.1644 1.23802c0,0 0.0990097,0.0813652 -0.0552013,0.165162 -0.154195,0.0837931 -0.0709653,0.30669 0.00939896,0.408034 0.0442267,0.0557917 0.0338269,0.0815294 0.0084489,0.122691 -0.0326774,0.0529415 -0.0853062,0.107138 -0.0659921,0.0907719 0.06392,-0.0541379 0.174522,-0.0587005 0.162077,-0.165131 -0.0102161,-0.087046 -0.0651359,-0.109527 -0.0985249,-0.218139 -0.0344329,-0.111951 0.0110019,-0.112182 0.09969,-0.17731 0.0448171,-0.0329081 0.0125385,-0.136262 -0.0598969,-0.226079z"/>
   <path id="_64192624" class="fil12" d="M11.754 3.25815c-0.528696,0.00646277 -0.438049,-0.473338 -0.488461,-0.841317 0.177458,0.110735 0.26077,0.465221 0.445075,0.487124 -0.0386437,0.0330019 -0.191217,-0.24564 0.0706252,-0.651101 0.205718,-0.271155 0.605338,-0.277019 0.860881,-0.247255l0 0.351081c-0.189125,0.0465569 -0.325625,0.162562 -0.368202,0.251082 -0.042698,0.0755045 -0.0820728,0.323424 -0.0375489,0.373175l0.117401 -0.231244c0.0522495,0.2091 0.025984,0.209612 0.00607179,0.365711 0.209354,0.382464 0.274752,0.461147 0.219945,0.621227 -0.0277473,0.0811149 -0.415724,-0.208576 -0.550176,-0.245503 -0.0310432,-0.00851146 0.162429,0.235248 0.136742,0.228253 -0.171824,-0.0468736 -0.276409,-0.165229 -0.412354,-0.461233zm1.11657 -1.21116c0.091288,0.0249362 0.175926,0.0723689 0.272113,0.0682324 0.0913037,-0.00393709 0.14613,-0.0928089 0.235232,-0.104827 0.0812674,-0.0109746 0.147275,0.0468189 0.227632,0.0390464 0.0745896,-0.00723689 -0.265521,0.211273 -0.194329,0.202664 0.0750588,-0.00905882 0.21939,0.0698237 0.291794,0.00014466 0.265704,-0.255727 0.689725,-0.366341 0.707096,-0.394276 0.0946856,0.152807 -0.206445,0.459756 -0.332815,0.492914 -0.182643,0.0884261 0.201792,0.0535983 0.171496,0.0987712 -0.172493,0.257209 -0.465648,0.181235 -0.697263,0.0629777 -0.0926564,-0.0299641 -0.0792265,0.0640021 -0.0934618,0.114754 -0.0218201,0.0778073 -0.209968,-0.099819 -0.339051,-0.226287 -0.0862875,-0.0369898 -0.169709,-0.0564524 -0.248443,-0.0627471l0 -0.291368z"/>
   <path id="_64190440" class="fil12" d="M2.11181 2.66532l0.52739 0 0.00703749 3.17142 -0.52739 0 -0.00703749 -3.17142zm0.720843 0l0.601143 0 0.783152 0.51025 0.0092113 2.47817 -1.38429 0 -0.0092113 -2.98842z"/>
   <polygon id="_64189112" class="fil13" points="2.20034,2.76305 2.44215,2.76305 2.44215,3.21279 2.20034,3.21279 "/>
   <polygon id="_64187784" class="fil12" points="1.01023,3.21061 1.30685,3.21061 1.30685,3.46309 1.01023,3.46309 "/>
   <polygon id="_64186456" class="fil13" points="2.99659,3.31536 3.23841,3.31536 3.23841,3.7651 2.99659,3.7651 "/>
   <polygon id="_64184992" class="fil13" points="3.02077,3.88346 3.26259,3.88346 3.26259,4.3332 3.02077,4.3332 "/>
   <path id="_64183608" class="fil12" d="M11.5083 1.24455c-0.112557,0.185981 -0.0355472,0.57467 0.0390346,0.75863 0.0442267,0.109128 0.0338269,0.159462 0.0084489,0.239971 -0.0326735,0.103545 -0.0853062,0.209553 -0.0659882,0.177544 0.0639161,-0.105887 0.174518,-0.114817 0.162073,-0.322982 -0.0102122,-0.170249 -0.065132,-0.214221 -0.0985249,-0.426656 -0.034429,-0.218972 0.0110059,-0.219417 0.09969,-0.346808 0.0121788,-0.0174882 0.0186494,-0.0451651 0.0201859,-0.0796996l-0.16492 0z"/>
   <path id="_64182072" class="fil12" d="M6.01529 2.3669c0.0129021,-0.00965701 0.281961,-0.188906 0.281961,-0.188906l0.15999 -0.0396055c0.02555,-0.00802665 0.0407197,-0.00365168 0.047464,0.0152675 0.00999715,0.0219413 0.0199943,0.0438866 0.0299915,0.0658318 0.00744801,0.017582 0.000848409,0.0258159 -0.0121397,0.0297999l-0.214968 0.061062c-0.0901268,0.0316883 -0.1826,0.0566401 -0.272957,0.0876715 0.00220508,0.00601706 -0.00111036,0.00674426 -0.00905491,0.0149938 -0.787179,0.302745 -0.862777,0.506039 -0.832754,1.0514l0.14457 2.4547 -0.076607 0 -0.127449 -2.37842c-0.049544,-0.691473 0.166902,-0.892835 0.876578,-1.16434 5.86458e-005,-0.00339364 0.00153261,-0.00656833 0.00537586,-0.00944588z"/>
   <path id="_64179904" class="fil12" d="M6.14067 3.00981c0.00991114,-0.00812831 0.216626,-0.159032 0.216626,-0.159032l0.122914 -0.0333382c0.0196307,-0.0067599 0.0312856,-0.00307304 0.036462,0.0128512 0.0076826,0.0184734 0.0153613,0.0369468 0.0230478,0.0554203 0.00571992,0.0148022 0.000649013,0.0217341 -0.00932859,0.0250887l-0.165154 0.051405c-0.069245,0.026676 -0.140285,0.047679 -0.209706,0.0738038 0.00169291,0.005067 -0.000852319,0.00567691 -0.00695539,0.0126206 -0.604771,0.254859 -0.662854,0.426007 -0.639782,0.885102l0.106649 1.98431 -0.0584542 0 -0.0938997 -1.9201c-0.0380611,-0.582106 0.128227,-0.75162 0.673453,-0.980182 4.30069e-005,-0.002858 0.00117683,-0.00553225 0.00412866,-0.00795237z"/>
   <polygon id="_64178576" class="fil12" points="8.20987,4.30557 8.32429,4.30605 8.32429,4.38236 8.20987,4.38188 "/>
   <polygon id="_64177248" class="fil12" points="8.39268,4.31098 8.50711,4.31145 8.50711,4.38776 8.39268,4.38728 "/>
   <polygon id="_64175888" class="fil12" points="8.04216,3.26762 8.15658,3.2681 8.15658,3.34441 8.04216,3.34394 "/>
   <polygon id="_64174560" class="fil12" points="8.22282,3.26872 8.33724,3.26921 8.33724,3.34552 8.22282,3.34503 "/>
   <polygon id="_64173232" class="fil12" points="8.40668,3.26761 8.5211,3.26809 8.5211,3.3444 8.40668,3.34392 "/>
   <polygon id="_64171904" class="fil12" points="7.96934,3.49499 8.08376,3.49546 8.08376,3.57177 7.96934,3.5713 "/>
   <polygon id="_64170440" class="fil12" points="8.15,3.49609 8.26442,3.49657 8.26442,3.57288 8.15,3.5724 "/>
   <polygon id="_64169112" class="fil12" points="8.40233,3.48944 8.51676,3.48992 8.51676,3.56623 8.40233,3.56575 "/>
   <polygon id="_64167784" class="fil12" points="7.97326,3.68398 8.08768,3.68446 8.08768,3.76077 7.97326,3.76029 "/>
   <polygon id="_64166456" class="fil12" points="8.15378,3.88636 8.2682,3.88684 8.2682,3.96315 8.15378,3.96267 "/>
   <polygon id="_64165128" class="fil12" points="8.40612,3.87971 8.52054,3.88019 8.52054,3.9565 8.40612,3.95602 "/>
   <polygon id="_64163800" class="fil12" points="8.40537,4.07105 8.51979,4.07152 8.51979,4.14783 8.40537,4.14736 "/>
   <polygon id="_64162520" class="fil12" points="8.59038,2.88041 8.64451,2.88063 8.64451,2.95694 8.59038,2.95672 "/>
   <polygon id="_64161240" class="fil12" points="8.5895,3.27301 8.64451,3.27325 8.64451,3.34956 8.5895,3.34932 "/>
   <polygon id="_64159960" class="fil12" points="8.58515,3.49485 8.64451,3.4951 8.64451,3.57141 8.58515,3.57116 "/>
   <polygon id="_64159072" class="fil12" points="8.58907,3.68384 8.64451,3.68408 8.64451,3.76039 8.58907,3.76016 "/>
   <polygon id="_64158048" class="fil12" points="8.58894,3.88512 8.64451,3.88535 8.64451,3.96166 8.58894,3.96143 "/>
   <polygon id="_47068672" class="fil12" points="8.58819,4.07645 8.64451,4.07669 8.64451,4.153 8.58819,4.15276 "/>
   <polygon id="_47065928" class="fil12" points="8.58515,4.29531 8.64451,4.29556 8.64451,4.37187 8.58515,4.37162 "/>
   <polygon id="_47063968" class="fil12" points="9.04086,2.58323 9.11055,2.52223 9.11055,2.59854 9.04086,2.65954 "/>
   <polygon id="_47063576" class="fil12" points="8.93891,2.87315 9.00861,2.81215 9.00861,2.88845 8.93891,2.94946 "/>
   <polygon id="_47062400" class="fil12" points="9.04895,2.77717 9.11864,2.71618 9.11864,2.79249 9.04895,2.85348 "/>
   <polygon id="_47059264" class="fil12" points="8.94207,3.06047 9.01177,2.99947 9.01177,3.07578 8.94207,3.13678 "/>
   <polygon id="_47058088" class="fil12" points="8.95017,3.25441 9.01986,3.19342 9.01986,3.26973 8.95017,3.33072 "/>
   <polygon id="_47056520" class="fil12" points="9.15364,2.49229 9.22333,2.43129 9.22333,2.5076 9.15364,2.5686 "/>
   <polygon id="_47053384" class="fil12" points="9.16173,2.68623 9.23143,2.62524 9.23143,2.70155 9.16173,2.76254 "/>
   <polygon id="_47052208" class="fil12" points="9.16489,2.87356 9.23459,2.81255 9.23459,2.88886 9.16489,2.94986 "/>
   <polygon id="_47050640" class="fil12" points="9.34498,2.4345 9.41467,2.49282 9.41467,2.56913 9.34498,2.51081 "/>
   <polygon id="_47049464" class="fil12" points="9.35307,2.64231 9.42277,2.70062 9.42277,2.77693 9.35307,2.71862 "/>
   <polygon id="_46980968" class="fil12" points="9.35623,2.83505 9.42593,2.89336 9.42593,2.96967 9.35623,2.91136 "/>
   <polygon id="_46979400" class="fil12" points="9.46628,2.92746 9.53597,2.98578 9.53597,3.06209 9.46628,3.00377 "/>
   <polygon id="_46977048" class="fil12" points="9.36433,3.04285 9.43403,3.10117 9.43403,3.17748 9.36433,3.11916 "/>
   <polygon id="_46975872" class="fil12" points="9.47437,3.13527 9.54407,3.19359 9.54407,3.26989 9.47437,3.21158 "/>
   <polygon id="_46972848" class="fil12" points="9.7291,2.66909 9.84352,2.66957 9.84352,2.74588 9.7291,2.7454 "/>
   <polygon id="_46969960" class="fil12" points="9.73301,2.85809 9.84743,2.85857 9.84743,2.93488 9.73301,2.9344 "/>
   <polygon id="_47139992" class="fil12" points="9.91367,2.85919 10.0281,2.85967 10.0281,2.93598 9.91367,2.9355 "/>
   <polygon id="_46975480" class="fil12" points="7.97456,2.88055 8.08898,2.88102 8.08898,2.95733 7.97456,2.95686 "/>
   <polygon id="_47047152" class="fil12" points="8.15522,2.88165 8.26964,2.88213 8.26964,2.95844 8.15522,2.95796 "/>
   <path id="_47054952" class="fil12" d="M12.5433 3.85621c0,0 -0.158914,0.354334 -0.0642758,0.568461 0.0946426,0.214131 0.171074,0.33902 0.0275049,0.623096 -0.0251199,0.0497003 -0.0387219,0.18303 0.00428896,0.305279 0.0517256,0.147017 0.00592713,0.276362 0.00591931,0.276304 -0.00345228,-0.216376 -0.125721,-0.483316 -0.0942633,-0.594782 0.0258276,-0.0915109 0.0619026,-0.0822761 0.0880547,-0.215867 0.0269614,-0.137677 -0.0522026,-0.216313 -0.121663,-0.496444 -0.0350975,-0.141544 0.0976921,-0.438061 0.154434,-0.466046z"/>
   <path id="_47061224" class="fil14" d="M12.3202 4.94339c0,0 0.077518,0.083019 -0.0432141,0.168521 -0.12072,0.0854977 -0.055561,0.31293 0.00735809,0.416334 0.0346245,0.0569294 0.0264805,0.0831871 0.00661524,0.125189 -0.0255813,0.0540167 -0.0667897,0.109316 -0.051663,0.0926212 0.0500405,-0.0552404 0.136629,-0.0598969 0.126886,-0.168493 -0.00799537,-0.0888171 -0.0509945,-0.111755 -0.0771348,-0.222576 -0.0269536,-0.11423 0.00861311,-0.114465 0.0780458,-0.180918 0.0350897,-0.0335767 0.00982121,-0.139034 -0.0468932,-0.230677z"/>
   <path id="_47067496" class="fil12" d="M14.6041 2.82519c0,0 -0.158914,0.467591 -0.0642758,0.750158 0.0946426,0.282571 0.171074,0.447377 0.0275049,0.822253 -0.0251199,0.0655855 -0.0387219,0.241527 0.00428896,0.40285 0.0517256,0.194008 0.00592713,0.364695 0.00591931,0.364616 -0.00345619,-0.285531 -0.125721,-0.637792 -0.0942633,-0.784888 0.0258276,-0.120759 0.0619026,-0.108573 0.0880508,-0.284862 0.0269653,-0.181685 -0.0521987,-0.285452 -0.121659,-0.65512 -0.0351015,-0.186783 0.0976921,-0.578075 0.154434,-0.615007z"/>
   <path id="_47069064" class="fil12" d="M14.4269 4.16083c0,0 0.0775141,0.109554 -0.043218,0.222385 -0.12072,0.112823 -0.0555571,0.412948 0.00735809,0.549405 0.0346245,0.0751252 0.0264805,0.109777 0.00661524,0.165201 -0.0255813,0.071282 -0.0667858,0.144257 -0.051663,0.122222 0.0500405,-0.0728967 0.136633,-0.0790428 0.126886,-0.222346 -0.00799537,-0.117202 -0.0509945,-0.147471 -0.0771348,-0.293714 -0.0269536,-0.150743 0.00861702,-0.151052 0.0780497,-0.238747 0.0350858,-0.0443128 0.0098173,-0.183475 -0.0468932,-0.304407z"/>
   <path id="_47070240" class="fil12" d="M14.2495 4.58535c0,0 -0.049196,0.109554 0.0274267,0.222385 0.0766148,0.112823 0.0352618,0.412948 -0.0046682,0.549405 -0.0219765,0.0751252 -0.0168079,0.109773 -0.00419904,0.165197 0.0162332,0.071282 0.0423853,0.144261 0.0327869,0.122226 -0.0317586,-0.0728967 -0.0867137,-0.0790428 -0.0805285,-0.222346 0.00507481,-0.117206 0.0323647,-0.147475 0.0489536,-0.293718 0.0171089,-0.150743 -0.00546579,-0.151052 -0.0495322,-0.238743 -0.0222698,-0.0443128 -0.00623209,-0.183475 0.0297608,-0.304407z"/>
   <path id="_47071808" class="fil2" d="M11.5405 4.02694l0 0.463282 0.00850364 0c0.0854938,0 0.15115,-0.0203423 0.197441,-0.0610307 0.0458141,-0.0406884 0.0689596,-0.0980206 0.0689596,-0.171996 0,-0.0739797 -0.0231455,-0.13085 -0.0689596,-0.170612 -0.0462911,-0.0397618 -0.111947,-0.0596428 -0.197441,-0.0596428l-0.00850364 0zm-0.618772 1.44533l0 -1.96965 0.774648 0c0.239005,0 0.422273,0.0490083 0.548862,0.147029 0.127062,0.0980206 0.190356,0.239502 0.190356,0.424447 0,0.113742 -0.025507,0.213146 -0.0769941,0.298222 -0.051014,0.0846141 -0.125643,0.151654 -0.223417,0.200201l0.362759 0.818378 -0.649475 0.081373 -0.307969 -0.835945 0 0.788324 -0.618772 0.0476204z"/>
   <path id="_47072984" class="fil2" d="M13.0361 3.55355l0.608782 -0.046467 0 1.22161c0,0.0618048 0.0101418,0.106915 0.030879,0.135785 0.0207371,0.0284197 0.0529962,0.0428544 0.0963159,0.0428544 0.043781,0 0.0760401,-0.0144347 0.0963198,-0.0428544 0.0202758,-0.0288694 0.0304176,-0.0739797 0.0304176,-0.135785l0 -1.17514 0.595419 -0.046467 0 1.24822c0,0.23187 -0.06037,0.405098 -0.181575,0.520579 -0.121205,0.115485 -0.303242,0.173228 -0.54611,0.173228 -0.242868,0 -0.425366,-0.0577426 -0.547494,-0.173228 -0.122124,-0.115481 -0.182955,-0.288709 -0.182955,-0.520579l0 -1.20176z"/>
   <path id="_47074160" class="fil12" d="M5.70955 5.91831l0 -0.942621 0.740161 -0.229489 0.206988 0 0 1.17143 -0.947149 0.000680291zm1.12273 -1.17211l0.746271 0 0.00784681 -2.19067 1.05811 0 0 3.03791 -1.81223 0 0 -0.847248zm2.00362 -2.22694l0.49872 -0.425272 0.481286 0.461351 0.535585 0.151932 0.000860138 2.02501 0.16266 0.0139499 0.00747929 1.05369 -1.68659 0 0 -3.28066z"/>
   <path id="_47075336" class="fil12" d="M17.3216 4.26548l0.0541183 1.45672 1.19606 0 -0.0119481 -1.87299 0.000563 -1.25202 -0.0856541 -0.0898219c-0.0907993,-0.112944 -0.225016,-0.0136957 -0.208349,-0.149058l0.0332913 -0.270459 -0.18638 -0.159391 0.0251708 -0.285898 -0.194845 -0.202942 -0.0183913 -0.288455 -0.0653979 0 -0.023904 0.296138 -0.185931 0.198899 0.00596232 0.281175 -0.196936 0.154692 0.0119637 0.154536 0.00160298 0.0206707 -0.559852 0 -0.0376897 0.0832731 0 3.38166 0.361723 0 0 -1.45727 0.0848253 0.00055127zm-0.629015 1.62529l-1.8046 0 0 -0.692564 0.0452941 -0.0427098 0.166132 5.08263e-005 0.134111 -0.134694 -0.345537 0.000359694 0 -0.119981 0.106763 -0.100691 0.457988 0.00014466 0.122671 -0.123082 -0.687422 0.000719388 0 -0.110778 0.116529 -0.109906 0.789732 0.000242403 0.124614 -0.125099 -1.03088 0.00107908 0 -0.107478 0.119981 -0.113202 0.482643 0.000148569 0.390937 -0.510164 -0.138815 0.000191576 0.180074 -0.220805 0.127734 5.08263e-005 0.10326 -0.134694 -0.363792 0.000492625 0.18016 -0.220801 0.35223 0.00014075 0.0944197 -0.123078 -0.619299 0.00084059 0.180097 -0.220809 0.719298 0.000226764 -0.00432415 3.20585zm-0.153367 -3.33074l-0.739035 0.0010048 0.180097 -0.220801 0.716628 0.000222854 -0.157691 0.219574z"/>
   <polygon id="_47076512" class="fil2" points="8.93428,5.45979 8.93428,3.53129 9.55825,3.48135 9.55825,4.28817 9.88464,3.47303 10.5421,3.53684 10.1586,4.38296 10.6073,5.40153 9.91817,5.45979 9.55825,4.48606 9.55825,5.40153 "/>
   <path id="_47077688" class="fil2" d="M8.56392 5.28997c-0.114868,0.0533247 -0.227041,0.0936534 -0.336979,0.120537 -0.10993,0.0273328 -0.216724,0.0407784 -0.320374,0.0407784 -0.132817,0 -0.258452,-0.0228523 -0.376463,-0.0681112 -0.118011,-0.0457046 -0.222557,-0.111576 -0.314545,-0.198504 -0.0955731,-0.0909635 -0.167363,-0.196264 -0.215824,-0.315905 -0.0480113,-0.119192 -0.0722438,-0.251829 -0.0722438,-0.397008 0,-0.144284 0.0242324,-0.276472 0.0722438,-0.395667 0.048461,-0.119641 0.120251,-0.224942 0.215824,-0.315901 0.0919879,-0.0878279 0.196534,-0.153699 0.314545,-0.198954 0.118011,-0.0452589 0.243646,-0.0676616 0.376463,-0.0676616 0.126534,0 0.240956,0.0179222 0.344607,0.0537704 0.103201,0.0358482 0.201468,0.0914092 0.294351,0.166691l-0.307363 0.457054c-0.0502555,-0.0430186 -0.10186,-0.074832 -0.155701,-0.0954441 -0.0538446,-0.020612 -0.112623,-0.0309181 -0.175445,-0.0309181 -0.117561,0 -0.211789,0.0389838 -0.283134,0.116951 -0.0713445,0.0779676 -0.10724,0.181028 -0.10724,0.31008 0,0.123223 0.0358951,0.225837 0.10724,0.30784 0.0713445,0.0819985 0.15929,0.122777 0.264739,0.122777 0.0157014,0 0.032306,-0.00134494 0.0502516,-0.00403483 0.0179495,-0.00268598 0.0354494,-0.00627119 0.0520501,-0.011651l0 -0.172067 -0.275057 0 0.104999 -0.427927 0.743054 0 0 1.00328z"/>
   <polygon id="_47078864" class="fil12" points="1.21732,5.05036 1.51394,5.05036 1.51394,5.30283 1.21732,5.30283 "/>
   <path id="_47080040" class="fil2" d="M2.46155 4.13294c-0.0552639,-0.0282047 -0.110059,-0.0490122 -0.163903,-0.0624187 -0.0543216,-0.0134103 -0.107224,-0.0203423 -0.160126,-0.0203423 -0.135562,0 -0.247036,0.0411498 -0.333949,0.123911 -0.0873822,0.0827609 -0.130839,0.190032 -0.130839,0.321801 0,0.134549 0.0444027,0.242739 0.132731,0.324577 0.0888014,0.0818382 0.205467,0.122527 0.350006,0.122527 0.0580984,0 0.114308,-0.00739719 0.16768,-0.0221955 0.0533755,-0.0152557 0.105336,-0.0383739 0.15493,-0.0698158l-0.0817131 0.621411c-0.0505448,0.0110958 -0.100613,0.0194196 -0.150207,0.0254288 -0.0491256,0.00601315 -0.0973012,0.00878905 -0.144538,0.00878905 -0.311745,0 -0.564923,-0.0933993 -0.759529,-0.280655 -0.194602,-0.186791 -0.291907,-0.429995 -0.291907,-0.730066 0,-0.149805 0.025507,-0.286661 0.0760479,-0.410575 0.0510101,-0.123449 0.126589,-0.231643 0.227198,-0.32365 0.0939935,-0.0883127 0.201691,-0.155814 0.32261,-0.202516 0.121393,-0.0466977 0.24987,-0.0698158 0.385432,-0.0698158 0.0618791,0 0.118085,0.00323725 0.169099,0.0101731 0.0505409,0.00693584 0.0991935,0.0175703 0.145011,0.0319033l0.0859669 0.60153z"/>
   <path id="_47081216" class="fil2" d="M14.9628 3.9596c-0.0190833,-0.0203775 -0.0332522,-0.0441525 -0.0422132,-0.0713211 -0.00896499,-0.0271686 -0.0135902,-0.0594355 -0.0135902,-0.0970744 0,-0.0568903 0.0104077,-0.114062 0.0312269,-0.17123 0.0211086,-0.0571718 0.0534889,-0.11717 0.097438,-0.180285l0.22032 0.0141493 -0.0610073 0.165854c-0.0107009,0.028584 -0.018794,0.0546227 -0.0239979,0.0778308 -0.00549315,0.0232081 -0.00809703,0.0433001 -0.00809703,0.059717 0,0.024338 0.00578247,0.048113 0.0176367,0.0710396 0.0118543,0.0229227 0.0297803,0.044434 0.0534889,0.0650929l-0.271205 0.0662267z"/>
   <path id="_47082392" class="fil2" d="M15.6626 4.62182l0.234912 0 -0.112561 -0.560446 -0.122351 0.560446zm-0.693811 0.781142l0.527042 -1.89563 0.593675 0 0.517256 1.89563 -0.537207 0.049454 -0.0794338 -0.335626 -0.41373 0 -0.0828196 0.335626 -0.524782 -0.049454z"/>
   <polygon id="_47263832" class="fil2" points="17.008,5.44279 17.008,3.50828 17.5468,3.50828 18.0589,4.39916 18.0589,3.51377 18.5977,3.47764 18.5977,5.41215 18.0589,5.41215 17.5468,4.49566 17.5468,5.40163 "/>
   <path id="_47264968" class="fil12" d="M4.3884 3.45839c0.00207606,0.731759 0.00415603,1.46354 0.00623991,2.19535l0.261361 0 0 -2.79815 -0.124411 0.112698 0.0119637 0.178213 0.0117213 0.174401c0.00621645,0.0924961 -0.109879,0.0862406 -0.166875,0.137489zm0.450235 2.45989l0.793086 0 0.000664652 -0.912141 0.000566909 -1.44381 -0.085658 -0.103584c-0.0907954,-0.130248 -0.225016,-0.0157914 -0.208349,-0.171891l0.0332952 -0.31189 -0.186384 -0.183808 0.0251708 -0.329695 -0.194845 -0.234028 -0.047249 -0.854633 -0.0604403 0.863493 -0.0698589 0.0861741 0 3.59582z"/>
   <path id="_47266144" class="fil2" d="M3.62181 4.62156l0.234912 0 -0.112561 -0.560446 -0.122351 0.560446zm-0.693815 0.78115l0.527042 -1.89563 0.593679 0 0.517256 1.89563 -0.537207 0.0494501 -0.0794338 -0.335626 -0.41373 0 -0.0828235 0.335626 -0.524782 -0.0494501z"/>
   <path id="_47267320" class="fil12" d="M6.77796 3.86447c0.00830033,-0.00573947 0.181286,-0.112354 0.181286,-0.112354l0.102865 -0.0235521c0.0164286,-0.00477377 0.0261795,-0.0021738 0.0305154,0.00907837 0.00642758,0.0130546 0.0128512,0.0261052 0.0192827,0.0391519 0.0047855,0.0104585 0.000543451,0.0153574 -0.0078038,0.0177267l-0.138212 0.0363174c-0.0579459,0.0188448 -0.117397,0.0336861 -0.175492,0.05214 0.00141532,0.0035813 -0.000715479,0.00401137 -0.00582157,0.00891807 -0.506109,0.180058 -0.554715,0.300966 -0.535409,0.625317l0.0892511 1.40189 -0.0489184 0 -0.0785814 -1.35653c-0.0318525,-0.411252 0.10731,-0.531014 0.563586,-0.692489 3.51875e-005,-0.00201741 0.000985249,-0.00390581 0.00345228,-0.00561827z"/>
   <polygon id="_46863360" class="fil2" points="4.93768,5.45989 4.93768,3.52908 5.49093,3.52908 6.01682,4.41826 6.01682,3.53456 6.57007,3.4985 6.57007,5.42931 6.01682,5.42931 5.49093,4.51457 5.49093,5.41881 "/>
  </g>
 </g>
</svg>
